<svg xmlns="http://www.w3.org/2000/svg" viewBox="0 0 512 512">
  <defs>
    <linearGradient id="nf-grad" x1="0%" y1="0%" x2="100%" y2="100%">
      <stop offset="0%" stop-color="#9da7ff" />
      <stop offset="55%" stop-color="#6675ef" />
      <stop offset="100%" stop-color="#8557dc" />
    </linearGradient>
  </defs>
  <rect width="512" height="512" rx="128" fill="url(#nf-grad)"/>
  <path d="M256 104c8 63 39 94 104 104-65 10-96 41-104 104-8-63-39-94-104-104 65-10 96-41 104-104Z" fill="#fff"/>
  <path d="M373 88c3 25 15 37 40 40-25 3-37 15-40 40-3-25-15-37-40-40 25-3 37-15 40-40Z" fill="#fff" opacity=".92"/>
  <circle cx="144" cy="344" r="28" fill="#fff" opacity=".9"/>
</svg>
